<?xml version="1.0" encoding="utf-8"?>
<!-- Generator: Adobe Illustrator 24.1.1, SVG Export Plug-In . SVG Version: 6.00 Build 0)  -->
<svg version="1.1" id="Layer_1" xmlns="http://www.w3.org/2000/svg" xmlns:xlink="http://www.w3.org/1999/xlink" x="0px" y="0px"
	 viewBox="0 0 512 512" style="enable-background:new 0 0 512 512;" xml:space="preserve">
<g>
	<path d="M409.6,0C466.1,0,512,45.8,512,102.4v307.2c0,56.5-45.9,102.4-102.4,102.4H102.4C45.8,512,0,466.1,0,409.6V102.4
		C0,45.8,45.8,0,102.4,0H409.6z M384,332.8c-28.3,0-51.2,22.9-51.2,51.2s22.9,51.2,51.2,51.2s51.2-22.9,51.2-51.2
		S412.3,332.8,384,332.8z M256,204.8c-28.3,0-51.2,22.9-51.2,51.2s22.9,51.2,51.2,51.2s51.2-22.9,51.2-51.2S284.3,204.8,256,204.8z
		 M128,76.8c-28.3,0-51.2,22.9-51.2,51.2s22.9,51.2,51.2,51.2s51.2-22.9,51.2-51.2S156.3,76.8,128,76.8z"/>
</g>
</svg>
